<svg xmlns="http://www.w3.org/2000/svg" xmlns:xlink="http://www.w3.org/1999/xlink" version="1.1" style="" xml:space="preserve" width="111.37016553626407" height="42.0662967007346"><rect id="backgroundrect" width="100%" height="100%" x="0" y="0" fill="none" stroke="none" style="" class=""/><g class="currentLayer" style=""><title>Layer 1</title><g id="svg_1" class="" fill="#ffffff" fill-opacity="1"><path d="M32.28508267402649,18.37845206260681 c0.6000000000000002,0 1.1,-0.5 1.1,-1.1 v-4.3 c0,-0.3000000000000001 -0.1,-0.6000000000000002 -0.4,-0.8 c-0.3000000000000001,-0.2 -0.6000000000000002,-0.3000000000000001 -0.9,-0.2 l-18.7,4.3 c-0.5,0.1 -0.9,0.6000000000000002 -0.8,1.2 c0.1,0.5 0.5,0.9 1.1,0.9 H32.28508267402649 zM31.28508267402649,14.27845206260681 v1.9 h-8.3 L31.28508267402649,14.27845206260681 z" id="svg_2" fill="#ffffff" fill-opacity="1"/><path d="M67.5850826740265,16.67845206260681 l-10.8,-5.2 c-0.1,-0.1 -0.3000000000000001,-0.1 -0.5,-0.1 h0 l-14.6,0 c-0.6000000000000002,0 -1.1,0.5 -1.1,1.1 l-0.1,5.1 c0,0.3000000000000001 0.1,0.6000000000000002 0.3000000000000001,0.8 c0.2,0.2 0.5,0.3000000000000001 0.8,0.3000000000000001 l25.5,0 c0.5,0 0.9,-0.3000000000000001 1,-0.8 C68.28508267402648,17.37845206260681 67.98508267402649,16.87845206260681 67.5850826740265,16.67845206260681 zM42.68508267402649,16.578452062606814 l0,-3 l13.4,0 l6.3,3 L42.68508267402649,16.578452062606814 z" id="svg_3" fill="#ffffff" fill-opacity="1"/><path d="M105.48508267402649,22.478452062606813 H103.68508267402649 v-0.3000000000000001 c0,-1.5 -1,-2.7 -2.4,-3.1 l-7.4,-1.9 c-0.2,0 -0.3000000000000001,-0.1 -0.5,-0.1 l-21.9,-1.8 c-0.1,0 -0.3000000000000001,0 -0.4,-0.1 l-12.8,-6.6 c-0.4,-0.2 -1,-0.4 -1.5,-0.4 H33.58508267402649 c-0.2,0 -0.5,0 -0.7000000000000002,0.1 l-10.3,2.3 l-10.7,-5.7 c-0.3000000000000001,-0.2 -0.7000000000000002,-0.2 -1,0 c-0.3000000000000001,0.2 -0.5,0.5 -0.5,0.9 v1.4 l-4.3,-2.4 c-0.3000000000000001,-0.2 -0.7000000000000002,-0.2 -1.1,0 c-0.3000000000000001,0.2 -0.5,0.5 -0.5,0.9 v16.9 c0,0.3000000000000001 0.1,0.6000000000000002 0.4,0.8 l3.3,2.7 v1.5 c0,1.8 1.4,3.2 3.2,3.2 h4.6 c0.8,4.6 4.8,8.2 9.7,8.2 c4.5,0 8.2,-3 9.4,-7.1 l3.2,3.2 c0.2,0.2 0.5,0.3000000000000001 0.8,0.3000000000000001 h36.7 c0.3000000000000001,0 0.6000000000000002,-0.1 0.8,-0.3000000000000001 l1.4,-1.4 c1.3,3.1 4.4,5.3 8,5.3 c3.4,0 6.4,-2 7.8,-4.9 h6.9 c1.8,0 3.2,-1.4 3.2,-3.2 v-2.7 h1.8 c1.1,0 1.9,-0.9 1.9,-1.9 v-2 C107.38508267402649,23.37845206260681 106.5850826740265,22.478452062606813 105.48508267402649,22.478452062606813 zM12.385082674026489,7.678452062606809 l7,3.7 l-1.2,0.3000000000000001 l-5.7,-3.1 V7.678452062606809 zM6.48508267402649,22.27845206260681 V7.678452062606809 l8.5,4.6 l-4.4,1 c-1.4,0.3000000000000001 -2.5,1.6 -2.5,3.1 v7.2 L6.48508267402649,22.27845206260681 zM10.18508267402649,27.778452062606817 V16.37845206260681 c0,-0.5 0.4,-0.9 0.8,-1 l22.3,-4.9 c0.1,0 0.1,0 0.2,0 h3.3 v7 c0,1.4 0.6000000000000002,2.8 1.6,3.8 l8.2,8.2 H35.38508267402649 c0,0 0,0 0,0 c0,-5.4 -4.4,-9.8 -9.8,-9.8 c-5.3,0 -9.5,4.1 -9.8,9.3 h-4.5 C10.68508267402649,28.87845206260681 10.18508267402649,28.37845206260681 10.18508267402649,27.778452062606817 zM48.88508267402649,31.478452062606806 v1.9 H44.68508267402649 v-1.9 H48.88508267402649 zM25.585082674026488,37.078452062606814 c-4.2,0 -7.7,-3.5 -7.7,-7.7 s3.5,-7.7 7.7,-7.7 s7.7,3.5 7.7,7.7 S29.78508267402649,37.078452062606814 25.585082674026488,37.078452062606814 zM37.38508267402649,31.478452062606806 h5.2 v1.9 h-3.3 L37.38508267402649,31.478452062606806 zM75.18508267402649,33.478452062606806 H50.985082674026486 v-1.9 h26.1 L75.18508267402649,33.478452062606806 zM85.78508267402648,37.078452062606814 c-3.6,0 -6.6,-3 -6.6,-6.6 c0,-3.6 3,-6.6 6.6,-6.6 c3.6,0 6.6,3 6.6,6.6 C92.38508267402649,34.078452062606814 89.38508267402649,37.078452062606814 85.78508267402648,37.078452062606814 zM85.78508267402648,21.67845206260681 c-4.4,0 -8.1,3.3 -8.6,7.7 h-0.9 c0.5,-4.8 4.6,-8.5 9.5,-8.5 c5.3,0 9.6,4.3 9.6,9.6 c0,0.6000000000000002 -0.1,1.1 -0.2,1.7000000000000002 h-0.9 c0.1,-0.5 0.2,-1.1 0.2,-1.7000000000000002 C94.48508267402649,25.67845206260681 90.5850826740265,21.67845206260681 85.78508267402648,21.67845206260681 zM101.5850826740265,31.078452062606814 c0,0.6000000000000002 -0.5,1.1 -1.1,1.1 h-3.1 c0.1,-0.5 0.1,-1.1 0.1,-1.7000000000000002 c0,-6.5 -5.3,-11.7 -11.7,-11.7 c-3.4,0 -6.4,1.5 -8.6,3.8 c0,0 -0.1,0 -0.1,0 H51.485082674026486 c-0.6000000000000002,0 -1.1,0.5 -1.1,1.1 s0.5,1.1 1.1,1.1 H75.68508267402649 c-0.3000000000000001,0.5 -0.6000000000000002,1.1 -0.8,1.6 H63.785082674026484 c-0.6000000000000002,0 -1.1,0.5 -1.1,1.1 s0.5,1.1 1.1,1.1 h10.5 c-0.1,0.3000000000000001 -0.1,0.7000000000000002 -0.1,1 H49.58508267402649 l-9.7,-9.7 c-0.6000000000000002,-0.6000000000000002 -0.9,-1.4 -0.9,-2.3 v-7 h17.8 c0.2,0 0.3000000000000001,0 0.5,0.1 l12.8,6.6 c0.4,0.2 0.8,0.3000000000000001 1.2,0.3000000000000001 l21.9,1.8 c0.1,0 0.1,0 0.2,0 l7.4,1.9 c0.5,0.1 0.8,0.5 0.8,1 V31.078452062606814 zM105.28508267402648,26.278452062606817 H103.68508267402649 v-1.6 h1.6 V26.278452062606817 z" id="svg_4" fill="#ffffff" fill-opacity="1"/><path d="M25.585082674026488,24.27845206260681 c-2.8,0 -5.1,2.3 -5.1,5.1 c0,2.8 2.3,5.1 5.1,5.1 c2.8,0 5.1,-2.3 5.1,-5.1 C30.68508267402649,26.578452062606814 28.38508267402649,24.27845206260681 25.585082674026488,24.27845206260681 zM25.585082674026488,32.27845206260682 c-1.6,0 -2.9,-1.3 -2.9,-2.9 c0,-1.6 1.3,-2.9 2.9,-2.9 c1.6,0 2.9,1.3 2.9,2.9 C28.48508267402649,30.978452062606806 27.18508267402649,32.27845206260682 25.585082674026488,32.27845206260682 z" id="svg_5" fill="#ffffff" fill-opacity="1"/><path d="M85.78508267402648,26.278452062606817 c-2.3,0 -4.2,1.9 -4.2,4.2 c0,2.3 1.9,4.2 4.2,4.2 s4.2,-1.9 4.2,-4.2 C89.98508267402649,28.078452062606814 88.0850826740265,26.278452062606817 85.78508267402648,26.278452062606817 zM85.78508267402648,32.478452062606806 c-1.1,0 -2.1,-0.9 -2.1,-2.1 s0.9,-2.1 2.1,-2.1 s2.1,0.9 2.1,2.1 S86.98508267402649,32.478452062606806 85.78508267402648,32.478452062606806 z" id="svg_6" fill="#ffffff" fill-opacity="1"/></g></g></svg>