<svg xmlns="http://www.w3.org/2000/svg" xmlns:xlink="http://www.w3.org/1999/xlink" version="1.1" x="0px" y="0px" viewBox="0 0 120 150" style="enable-background:new 0 0 120 120;" xml:space="preserve"><g><path d="M35.6,56.5c0.6,0,1.1-0.5,1.1-1.1v-4.3c0-0.3-0.1-0.6-0.4-0.8c-0.3-0.2-0.6-0.3-0.9-0.2l-18.7,4.3   c-0.5,0.1-0.9,0.6-0.8,1.2c0.1,0.5,0.5,0.9,1.1,0.9H35.6z M34.6,52.4v1.9h-8.3L34.6,52.4z"/><path d="M70.9,54.8l-10.8-5.2c-0.1-0.1-0.3-0.1-0.5-0.1h0l-14.6,0c-0.6,0-1.1,0.5-1.1,1.1l-0.1,5.1c0,0.3,0.1,0.6,0.3,0.8   c0.2,0.2,0.5,0.3,0.8,0.3l25.5,0c0.5,0,0.9-0.3,1-0.8C71.6,55.5,71.3,55,70.9,54.8z M46,54.7l0-3l13.4,0l6.3,3L46,54.7z"/><path d="M108.8,60.6H107v-0.3c0-1.5-1-2.7-2.4-3.1l-7.4-1.9c-0.2,0-0.3-0.1-0.5-0.1l-21.9-1.8c-0.1,0-0.3,0-0.4-0.1l-12.8-6.6   c-0.4-0.2-1-0.4-1.5-0.4H36.9c-0.2,0-0.5,0-0.7,0.1l-10.3,2.3l-10.7-5.7c-0.3-0.2-0.7-0.2-1,0c-0.3,0.2-0.5,0.5-0.5,0.9v1.4   l-4.3-2.4c-0.3-0.2-0.7-0.2-1.1,0c-0.3,0.2-0.5,0.5-0.5,0.9v16.9c0,0.3,0.1,0.6,0.4,0.8l3.3,2.7v1.5c0,1.8,1.4,3.2,3.2,3.2h4.6   c0.8,4.6,4.8,8.2,9.7,8.2c4.5,0,8.2-3,9.4-7.1l3.2,3.2c0.2,0.2,0.5,0.3,0.8,0.3h36.7c0.3,0,0.6-0.1,0.8-0.3l1.4-1.4   c1.3,3.1,4.4,5.3,8,5.3c3.4,0,6.4-2,7.8-4.9h6.9c1.8,0,3.2-1.4,3.2-3.2v-2.7h1.8c1.1,0,1.9-0.9,1.9-1.9v-2   C110.7,61.5,109.9,60.6,108.8,60.6z M15.7,45.8l7,3.7l-1.2,0.3l-5.7-3.1V45.8z M9.8,60.4V45.8l8.5,4.6l-4.4,1   c-1.4,0.3-2.5,1.6-2.5,3.1v7.2L9.8,60.4z M13.5,65.9V54.5c0-0.5,0.4-0.9,0.8-1l22.3-4.9c0.1,0,0.1,0,0.2,0h3.3v7   c0,1.4,0.6,2.8,1.6,3.8l8.2,8.2H38.7c0,0,0,0,0,0c0-5.4-4.4-9.8-9.8-9.8c-5.3,0-9.5,4.1-9.8,9.3h-4.5C14,67,13.5,66.5,13.5,65.9z    M52.2,69.6v1.9H48v-1.9H52.2z M28.9,75.2c-4.2,0-7.7-3.5-7.7-7.7s3.5-7.7,7.7-7.7s7.7,3.5,7.7,7.7S33.1,75.2,28.9,75.2z    M40.7,69.6h5.2v1.9h-3.3L40.7,69.6z M78.5,71.6H54.3v-1.9h26.1L78.5,71.6z M89.1,75.2c-3.6,0-6.6-3-6.6-6.6c0-3.6,3-6.6,6.6-6.6   c3.6,0,6.6,3,6.6,6.6C95.7,72.2,92.7,75.2,89.1,75.2z M89.1,59.8c-4.4,0-8.1,3.3-8.6,7.7h-0.9c0.5-4.8,4.6-8.5,9.5-8.5   c5.3,0,9.6,4.3,9.6,9.6c0,0.6-0.1,1.1-0.2,1.7h-0.9c0.1-0.5,0.2-1.1,0.2-1.7C97.8,63.8,93.9,59.8,89.1,59.8z M104.9,69.2   c0,0.6-0.5,1.1-1.1,1.1h-3.1c0.1-0.5,0.1-1.1,0.1-1.7c0-6.5-5.3-11.7-11.7-11.7c-3.4,0-6.4,1.5-8.6,3.8c0,0-0.1,0-0.1,0H54.8   c-0.6,0-1.1,0.5-1.1,1.1s0.5,1.1,1.1,1.1H79c-0.3,0.5-0.6,1.1-0.8,1.6H67.1c-0.6,0-1.1,0.5-1.1,1.1s0.5,1.1,1.1,1.1h10.5   c-0.1,0.3-0.1,0.7-0.1,1H52.9l-9.7-9.7c-0.6-0.6-0.9-1.4-0.9-2.3v-7h17.8c0.2,0,0.3,0,0.5,0.1l12.8,6.6c0.4,0.2,0.8,0.3,1.2,0.3   l21.9,1.8c0.1,0,0.1,0,0.2,0l7.4,1.9c0.5,0.1,0.8,0.5,0.8,1V69.2z M108.6,64.4H107v-1.6h1.6V64.4z"/><path d="M28.9,62.4c-2.8,0-5.1,2.3-5.1,5.1c0,2.8,2.3,5.1,5.1,5.1c2.8,0,5.1-2.3,5.1-5.1C34,64.7,31.7,62.4,28.9,62.4z M28.9,70.4   c-1.6,0-2.9-1.3-2.9-2.9c0-1.6,1.3-2.9,2.9-2.9c1.6,0,2.9,1.3,2.9,2.9C31.8,69.1,30.5,70.4,28.9,70.4z"/><path d="M89.1,64.4c-2.3,0-4.2,1.9-4.2,4.2c0,2.3,1.9,4.2,4.2,4.2s4.2-1.9,4.2-4.2C93.3,66.2,91.4,64.4,89.1,64.4z M89.1,70.6   c-1.1,0-2.1-0.9-2.1-2.1s0.9-2.1,2.1-2.1s2.1,0.9,2.1,2.1S90.3,70.6,89.1,70.6z"/></g></svg>
