<?xml version="1.0" encoding="utf-8"?>
<!-- Generator: Adobe Illustrator 22.1.0, SVG Export Plug-In . SVG Version: 6.00 Build 0)  -->
<svg version="1.1" xmlns="http://www.w3.org/2000/svg" xmlns:xlink="http://www.w3.org/1999/xlink" x="0px" y="0px"
	 viewBox="0 0 1280 1280" style="enable-background:new 0 0 1280 1280;" xml:space="preserve">
<style type="text/css">
	.st0{display:none;}
	.st1{display:inline;fill:#231F20;}
	.st2{fill:#4A8CC6;}
	.st3{fill:none;stroke:#4A8CC6;stroke-width:10;stroke-miterlimit:10;}
	.st4{fill:#FFFFFF;}
</style>
<g id="Fond" class="st0">
	<rect y="-1" class="st1" width="1280" height="1280"/>
</g>
<g id="terre">
	<circle class="st2" cx="640" cy="640" r="495.6"/>
</g>
<g id="anneaux">
	<ellipse class="st3" cx="640" cy="640" rx="631.5" ry="616.2"/>
</g>
<g id="cont_1">
	<path class="st4" d="M243,341.7l140,60.9l32.8,85.6l141.3-17.9l48.6,60.2l36-49.1l21.6-87.3l-37.1-25.1l-30.7-44.7l-88.3-109.6
		l17.8-57.9l-2-32.6c-117.1,36.3-212.5,91.1-278.7,170.6L243,341.7z"/>
</g>
<g id="cont_2">
	<path class="st4" d="M893.3,214.8l20,45.7v62.1l-20,65l25.7,64.3l47.1,18.6l57.1-10h35.7l42.9-78.6
		c-33.2-87.1-93.6-146.3-177.1-181.4"/>
</g>
<g id="cont_3">
	<polygon class="st4" points="539.7,665.8 519.8,716.1 565.5,764.8 599.9,897.2 585.4,967.8 630,1075.8 664.8,1032.6 706.8,1048.1 
		755.8,1103.7 788.1,1025.3 791.7,836.4 811.6,767.5 784.3,745.1 748.8,773 694.6,748.3 672.1,687.3 609,678.9 581.1,622.4 	"/>
</g>
</svg>
