<svg xmlns="http://www.w3.org/2000/svg" width="65.10497241062274" height="65.63535866190526" style=""><rect id="backgroundrect" width="100%" height="100%" x="0" y="0" fill="none" stroke="none" style="" class=""/><title>transport-travel-plane-airport-airplane-aeroplane-flight-transportation</title><g class="currentLayer" style=""><title>Layer 1</title><g data-name="Layer 13" id="svg_1" class="selected" fill="#ffffff" fill-opacity="1"><path d="M40.217,58.024l-8.176-1.817.9-18.069L39,38.964V42a4,4,0,0,0,8,0V40.055l6.865.936A1,1,0,0,0,55,40V36a1,1,0,0,0-.658-.94L33,27.3V12a1,1,0,0,0-.293-.707l-4-4a1,1,0,0,0-1.414,0l-4,4A1,1,0,0,0,23,12V27.3L1.658,35.06A1,1,0,0,0,1,36v4a1,1,0,0,0,1.135.991L9,40.055V42a4,4,0,0,0,8,0V38.964l6.056-.826.9,18.069-8.176,1.817A1,1,0,0,0,15,59v3a1,1,0,0,0,1,1H40a1,1,0,0,0,1-1V59A1,1,0,0,0,40.217,58.024ZM45,42a2,2,0,0,1-4,0V39.237l4,.545Zm8-3.146L35,36.4V30.155l4,1.455V34h2V32.337l4,1.454V36h2V34.518L53,36.7ZM3,36.7l6-2.182V36h2V33.791l4-1.454V34h2V31.61l4-1.455V36.4L3,38.854ZM15,42a2,2,0,0,1-4,0V39.782l4-.545Zm8.865-5.991L23,36.127v-6.7l1.342-.488A1,1,0,0,0,25,28V12.414l2-2V18h2V10.414l2,2V28a1,1,0,0,0,.658.94L33,29.428v6.7l-.865-.118A1,1,0,0,0,31,36.95l-1,20c0,.017.007.033.007.05H30v4H26V57h-.008c0-.017.007-.033.007-.05l-1-20a1,1,0,0,0-1.134-.941ZM17,59.8l7-1.555V61H17ZM39,61H32V58.247L39,59.8Z" id="svg_2" fill="#ffffff" fill-opacity="1"/><path d="M57.65,53.015a5.993,5.993,0,0,0-11.6,1.241A4.491,4.491,0,0,0,47,62.972L58,63a5,5,0,1,0-.35-9.985ZM58,61H47.5a2.492,2.492,0,0,1-.354-4.96,1,1,0,0,0,.859-.99c0-.027,0-.061-.005-.094a3.992,3.992,0,0,1,7.93-.622,1,1,0,0,0,1.258.8A2.943,2.943,0,0,1,58,55a3,3,0,0,1,0,6Z" id="svg_3" fill="#ffffff" fill-opacity="1"/><path d="M5,14.972,16,15a5,5,0,1,0-.35-9.985,5.993,5.993,0,0,0-11.6,1.241A4.491,4.491,0,0,0,5,14.972ZM5.146,8.04a1,1,0,0,0,.859-.99c0-.027,0-.061,0-.094a3.992,3.992,0,0,1,7.93-.622,1,1,0,0,0,1.258.8A2.943,2.943,0,0,1,16,7a3,3,0,0,1,0,6H5.5a2.492,2.492,0,0,1-.354-4.96Z" id="svg_4" fill="#ffffff" fill-opacity="1"/><path d="M61.536,3.122l-.658-.658A4.966,4.966,0,0,0,57.343,1h-.686a4.966,4.966,0,0,0-3.535,1.464l-.658.658A4.966,4.966,0,0,0,51,6.657V7.718a4.969,4.969,0,0,0,.931,2.906l4.255,5.957a1,1,0,0,0,1.628,0l4.254-5.956A4.969,4.969,0,0,0,63,7.718V6.657A4.966,4.966,0,0,0,61.536,3.122ZM61,7.718a2.979,2.979,0,0,1-.559,1.744L57,14.279,53.559,9.461A2.974,2.974,0,0,1,53,7.718V6.657a3.02,3.02,0,0,1,.878-2.121l.658-.658A3.02,3.02,0,0,1,56.657,3h.686a3.02,3.02,0,0,1,2.121.878l.658.658A3.02,3.02,0,0,1,61,6.657Z" id="svg_5" fill="#ffffff" fill-opacity="1"/><rect x="56" y="19" width="2" height="2" id="svg_6" fill="#ffffff" fill-opacity="1"/><rect x="56" y="23" width="2" height="2" id="svg_7" fill="#ffffff" fill-opacity="1"/><rect x="52" y="27" width="2" height="2" id="svg_8" fill="#ffffff" fill-opacity="1"/><rect x="48" y="23" width="2" height="2" id="svg_9" fill="#ffffff" fill-opacity="1"/><rect x="48" y="19" width="2" height="2" id="svg_10" fill="#ffffff" fill-opacity="1"/><rect x="48" y="15" width="2" height="2" id="svg_11" fill="#ffffff" fill-opacity="1"/><rect x="44" y="11" width="2" height="2" id="svg_12" fill="#ffffff" fill-opacity="1"/><rect x="40" y="15" width="2" height="2" id="svg_13" fill="#ffffff" fill-opacity="1"/><rect x="40" y="19" width="2" height="2" id="svg_14" fill="#ffffff" fill-opacity="1"/><rect x="40" y="23" width="2" height="2" id="svg_15" fill="#ffffff" fill-opacity="1"/></g></g></svg>